<mxfile host="app.diagrams.net" modified="2024-05-18T11:31:54.817Z" agent="Mozilla/5.0 (Windows NT 10.0; Win64; x64) AppleWebKit/537.36 (KHTML, like Gecko) Chrome/124.0.0.0 Safari/537.36 Edg/124.0.0.0" etag="XukGJBz-h1OP2E8e_4nd" version="24.4.4" type="device">
  <diagram name="第 1 页" id="LhFNHWYRA9qEoCRVjXH2">
    <mxGraphModel dx="1002" dy="569" grid="1" gridSize="10" guides="1" tooltips="1" connect="1" arrows="1" fold="1" page="1" pageScale="1" pageWidth="827" pageHeight="1169" math="0" shadow="0">
      <root>
        <mxCell id="0" />
        <mxCell id="1" parent="0" />
        <mxCell id="hoCwqsAvkDKEgcYhfA8v-2" style="edgeStyle=orthogonalEdgeStyle;rounded=0;orthogonalLoop=1;jettySize=auto;html=1;" edge="1" parent="1" source="hoCwqsAvkDKEgcYhfA8v-1" target="hoCwqsAvkDKEgcYhfA8v-3">
          <mxGeometry relative="1" as="geometry">
            <mxPoint x="430" y="160" as="targetPoint" />
          </mxGeometry>
        </mxCell>
        <mxCell id="hoCwqsAvkDKEgcYhfA8v-1" value="Initialize Parameters" style="rounded=0;whiteSpace=wrap;html=1;" vertex="1" parent="1">
          <mxGeometry x="370" y="60" width="120" height="60" as="geometry" />
        </mxCell>
        <mxCell id="hoCwqsAvkDKEgcYhfA8v-5" value="" style="edgeStyle=orthogonalEdgeStyle;rounded=0;orthogonalLoop=1;jettySize=auto;html=1;" edge="1" parent="1" source="hoCwqsAvkDKEgcYhfA8v-3" target="hoCwqsAvkDKEgcYhfA8v-4">
          <mxGeometry relative="1" as="geometry" />
        </mxCell>
        <mxCell id="hoCwqsAvkDKEgcYhfA8v-3" value="Set Up Experiment Conditions" style="rounded=0;whiteSpace=wrap;html=1;" vertex="1" parent="1">
          <mxGeometry x="370" y="160" width="120" height="60" as="geometry" />
        </mxCell>
        <mxCell id="hoCwqsAvkDKEgcYhfA8v-7" value="" style="edgeStyle=orthogonalEdgeStyle;rounded=0;orthogonalLoop=1;jettySize=auto;html=1;" edge="1" parent="1" source="hoCwqsAvkDKEgcYhfA8v-4" target="hoCwqsAvkDKEgcYhfA8v-6">
          <mxGeometry relative="1" as="geometry" />
        </mxCell>
        <mxCell id="hoCwqsAvkDKEgcYhfA8v-4" value="Load Original Signal" style="rounded=0;whiteSpace=wrap;html=1;" vertex="1" parent="1">
          <mxGeometry x="370" y="260" width="120" height="60" as="geometry" />
        </mxCell>
        <mxCell id="hoCwqsAvkDKEgcYhfA8v-9" value="" style="edgeStyle=orthogonalEdgeStyle;rounded=0;orthogonalLoop=1;jettySize=auto;html=1;" edge="1" parent="1" source="hoCwqsAvkDKEgcYhfA8v-6" target="hoCwqsAvkDKEgcYhfA8v-8">
          <mxGeometry relative="1" as="geometry" />
        </mxCell>
        <mxCell id="hoCwqsAvkDKEgcYhfA8v-6" value="Loop Over SNR Conditions" style="rounded=0;whiteSpace=wrap;html=1;" vertex="1" parent="1">
          <mxGeometry x="370" y="350" width="120" height="60" as="geometry" />
        </mxCell>
        <mxCell id="hoCwqsAvkDKEgcYhfA8v-11" value="" style="edgeStyle=orthogonalEdgeStyle;rounded=0;orthogonalLoop=1;jettySize=auto;html=1;" edge="1" parent="1" source="hoCwqsAvkDKEgcYhfA8v-8" target="hoCwqsAvkDKEgcYhfA8v-10">
          <mxGeometry relative="1" as="geometry" />
        </mxCell>
        <mxCell id="hoCwqsAvkDKEgcYhfA8v-8" value="Randomly Select DOA" style="rounded=0;whiteSpace=wrap;html=1;" vertex="1" parent="1">
          <mxGeometry x="570" y="350" width="120" height="60" as="geometry" />
        </mxCell>
        <mxCell id="hoCwqsAvkDKEgcYhfA8v-13" value="" style="edgeStyle=orthogonalEdgeStyle;rounded=0;orthogonalLoop=1;jettySize=auto;html=1;" edge="1" parent="1" source="hoCwqsAvkDKEgcYhfA8v-10" target="hoCwqsAvkDKEgcYhfA8v-12">
          <mxGeometry relative="1" as="geometry" />
        </mxCell>
        <mxCell id="hoCwqsAvkDKEgcYhfA8v-10" value="Calculate Microphone Distances and Time Delays" style="rounded=0;whiteSpace=wrap;html=1;" vertex="1" parent="1">
          <mxGeometry x="570" y="240" width="120" height="60" as="geometry" />
        </mxCell>
        <mxCell id="hoCwqsAvkDKEgcYhfA8v-15" value="" style="edgeStyle=orthogonalEdgeStyle;rounded=0;orthogonalLoop=1;jettySize=auto;html=1;" edge="1" parent="1" source="hoCwqsAvkDKEgcYhfA8v-12" target="hoCwqsAvkDKEgcYhfA8v-14">
          <mxGeometry relative="1" as="geometry" />
        </mxCell>
        <mxCell id="hoCwqsAvkDKEgcYhfA8v-12" value="Generate Noisy Signals" style="rounded=0;whiteSpace=wrap;html=1;" vertex="1" parent="1">
          <mxGeometry x="570" y="140" width="120" height="60" as="geometry" />
        </mxCell>
        <mxCell id="hoCwqsAvkDKEgcYhfA8v-17" value="" style="edgeStyle=orthogonalEdgeStyle;rounded=0;orthogonalLoop=1;jettySize=auto;html=1;" edge="1" parent="1" source="hoCwqsAvkDKEgcYhfA8v-14" target="hoCwqsAvkDKEgcYhfA8v-16">
          <mxGeometry relative="1" as="geometry" />
        </mxCell>
        <mxCell id="hoCwqsAvkDKEgcYhfA8v-25" style="edgeStyle=orthogonalEdgeStyle;rounded=0;orthogonalLoop=1;jettySize=auto;html=1;" edge="1" parent="1" source="hoCwqsAvkDKEgcYhfA8v-14">
          <mxGeometry relative="1" as="geometry">
            <mxPoint x="800" y="220" as="targetPoint" />
          </mxGeometry>
        </mxCell>
        <mxCell id="hoCwqsAvkDKEgcYhfA8v-14" value="Estimate Time Delays" style="whiteSpace=wrap;html=1;rounded=0;" vertex="1" parent="1">
          <mxGeometry x="740" y="140" width="120" height="60" as="geometry" />
        </mxCell>
        <mxCell id="hoCwqsAvkDKEgcYhfA8v-16" value="Estimate DOA" style="whiteSpace=wrap;html=1;rounded=0;" vertex="1" parent="1">
          <mxGeometry x="740" y="310" width="120" height="60" as="geometry" />
        </mxCell>
        <mxCell id="hoCwqsAvkDKEgcYhfA8v-21" value="" style="edgeStyle=orthogonalEdgeStyle;rounded=0;orthogonalLoop=1;jettySize=auto;html=1;" edge="1" parent="1" source="hoCwqsAvkDKEgcYhfA8v-18" target="hoCwqsAvkDKEgcYhfA8v-20">
          <mxGeometry relative="1" as="geometry" />
        </mxCell>
        <mxCell id="hoCwqsAvkDKEgcYhfA8v-18" value="Accuracy Assessment" style="rounded=0;whiteSpace=wrap;html=1;" vertex="1" parent="1">
          <mxGeometry x="760" y="420" width="120" height="60" as="geometry" />
        </mxCell>
        <mxCell id="hoCwqsAvkDKEgcYhfA8v-19" style="edgeStyle=orthogonalEdgeStyle;rounded=0;orthogonalLoop=1;jettySize=auto;html=1;exitX=0.5;exitY=1;exitDx=0;exitDy=0;entryX=0.343;entryY=-0.047;entryDx=0;entryDy=0;entryPerimeter=0;" edge="1" parent="1" source="hoCwqsAvkDKEgcYhfA8v-16" target="hoCwqsAvkDKEgcYhfA8v-18">
          <mxGeometry relative="1" as="geometry" />
        </mxCell>
        <mxCell id="hoCwqsAvkDKEgcYhfA8v-23" value="" style="edgeStyle=orthogonalEdgeStyle;rounded=0;orthogonalLoop=1;jettySize=auto;html=1;" edge="1" parent="1" source="hoCwqsAvkDKEgcYhfA8v-20" target="hoCwqsAvkDKEgcYhfA8v-22">
          <mxGeometry relative="1" as="geometry" />
        </mxCell>
        <mxCell id="hoCwqsAvkDKEgcYhfA8v-20" value="Record Accuracy" style="whiteSpace=wrap;html=1;rounded=0;" vertex="1" parent="1">
          <mxGeometry x="1020" y="420" width="120" height="60" as="geometry" />
        </mxCell>
        <mxCell id="hoCwqsAvkDKEgcYhfA8v-22" value="Plot Results" style="whiteSpace=wrap;html=1;rounded=0;" vertex="1" parent="1">
          <mxGeometry x="1020" y="190" width="120" height="60" as="geometry" />
        </mxCell>
        <mxCell id="hoCwqsAvkDKEgcYhfA8v-24" value="Determine Most Probable Lag" style="rounded=0;whiteSpace=wrap;html=1;" vertex="1" parent="1">
          <mxGeometry x="740" y="220" width="120" height="60" as="geometry" />
        </mxCell>
      </root>
    </mxGraphModel>
  </diagram>
</mxfile>
